<?xml version="1.0" encoding="UTF-8"?>
<!DOCTYPE svg PUBLIC "-//W3C//DTD SVG 1.1//EN" "http://www.w3.org/Graphics/SVG/1.1/DTD/svg11.dtd">
<svg version="1.1" xmlns="http://www.w3.org/2000/svg" xmlns:xlink="http://www.w3.org/1999/xlink" x="0" y="0" width="512" height="512" viewBox="0, 0, 512, 512">
  <g id="svgGrid">
    <path d="M512,214.628 C512,114.165 482.604,32.659 446.259,32.015 C446.405,32.012 446.548,32 446.695,32 L405.224,32 C405.224,32 307.824,105.168 167.609,133.877 C163.329,156.523 160.594,183.514 160.594,214.628 C160.594,245.742 163.327,272.732 167.609,295.378 C307.823,324.087 405.224,397.256 405.224,397.256 L446.695,397.256 C446.549,397.256 446.406,397.244 446.259,397.24 C482.607,396.596 512,315.091 512,214.628 z M432.412,369.626 C427.721,369.626 422.646,364.755 420.039,361.852 C413.724,354.82 407.643,343.872 402.445,330.188 C390.817,299.572 384.412,258.533 384.412,214.626 C384.412,170.721 390.817,129.681 402.445,99.065 C407.642,85.381 413.726,74.432 420.039,67.401 C422.646,64.495 427.721,59.625 432.412,59.625 C437.102,59.625 442.18,64.497 444.784,67.401 C451.101,74.433 457.182,85.38 462.378,99.065 C474.007,129.68 480.412,170.721 480.412,214.626 C480.412,258.528 474.007,299.57 462.378,330.188 C457.183,343.872 451.097,354.82 444.784,361.852 C442.18,364.755 437.104,369.626 432.412,369.626 z M125.906,214.628 C125.906,188.653 127.811,163.413 131.432,140.081 C107.746,143.358 86.961,145.243 61.262,145.243 C27.733,145.243 27.733,145.243 27.733,145.243 L0,192.586 L0,236.671 L27.73,284.014 C27.73,284.014 27.73,284.014 61.26,284.014 C86.959,284.014 107.744,285.901 131.43,289.176 C127.812,265.844 125.906,240.603 125.906,214.628 z M184.075,321.086 L120.076,308.831 L160.997,469.603 C163.115,477.92 171.369,482.122 179.34,478.93 L238.618,455.204 C246.59,452.016 249.782,443.222 245.716,435.662 L184.075,321.086 z M432.412,274.365 C430.603,274.365 428.648,272.488 427.643,271.369 C425.208,268.659 422.865,264.439 420.862,259.165 C416.381,247.365 413.912,231.548 413.912,214.626 C413.912,197.704 416.381,181.887 420.862,170.087 C422.865,164.813 425.21,160.593 427.643,157.883 C428.648,156.763 430.603,154.886 432.412,154.886 C434.22,154.886 436.177,156.764 437.181,157.883 C439.616,160.593 441.959,164.812 443.961,170.087 C448.443,181.886 450.912,197.704 450.912,214.626 C450.912,231.547 448.443,247.365 443.961,259.165 C441.959,264.439 439.613,268.659 437.181,271.369 C436.177,272.488 434.221,274.365 432.412,274.365 z" fill="#E26262"/>
  </g>
</svg>
