<?xml version="1.0" encoding="UTF-8"?>
<!DOCTYPE svg PUBLIC "-//W3C//DTD SVG 1.1//EN" "http://www.w3.org/Graphics/SVG/1.1/DTD/svg11.dtd">
<svg version="1.1" xmlns="http://www.w3.org/2000/svg" xmlns:xlink="http://www.w3.org/1999/xlink" x="0" y="0" width="512" height="512" viewBox="0, 0, 512, 512">
  <g id="svgGrid">
    <path d="M445.502,180.03 C443.881,115.681 391.273,64 326.571,64 C288.675,64 254.938,81.747 233.144,109.366 C220.923,93.567 201.799,83.386 180.29,83.386 C143.385,83.386 113.469,113.323 113.469,150.247 C113.469,153.465 113.709,156.627 114.151,159.724 C108.54,158.712 102.768,158.155 96.866,158.155 C43.367,158.154 0,201.548 0,255.076 C0,308.607 43.367,352 96.865,352 L146.745,352 L256,461.255 L365.255,352 L424.996,352 L424.996,351.994 C473.065,351.902 512,312.888 512,264.771 C512,223.726 483.661,189.321 445.502,180.03 z M256,416 L160,320 L224,320 L224,224 L288,224 L288,320 L352,320 L256,416 z" fill="#E26262"/>
  </g>
</svg>
