<?xml version="1.0" encoding="UTF-8"?>
<!DOCTYPE svg PUBLIC "-//W3C//DTD SVG 1.1//EN" "http://www.w3.org/Graphics/SVG/1.1/DTD/svg11.dtd">
<svg version="1.1" xmlns="http://www.w3.org/2000/svg" xmlns:xlink="http://www.w3.org/1999/xlink" x="0" y="0" width="544" height="512" viewBox="0, 0, 544, 512">
  <g id="svgGrid">
    <path d="M445.02,461.02 C438.877,461.02 432.736,458.677 428.049,453.991 C418.677,444.618 418.677,429.423 428.049,420.05 C471.868,376.229 496.001,317.97 496.001,256 C496.001,194.031 471.868,135.771 428.049,91.951 C418.677,82.578 418.677,67.382 428.049,58.01 C437.421,48.638 452.618,48.638 461.99,58.01 C514.875,110.896 544.001,181.21 544.001,256 C544.001,330.791 514.875,401.104 461.99,453.99 C457.304,458.677 451.162,461.02 445.02,461.02 z M359.765,415.765 C353.622,415.765 347.481,413.422 342.794,408.736 C333.422,399.364 333.422,384.168 342.794,374.795 C408.297,309.292 408.297,202.71 342.794,137.207 C333.422,127.834 333.422,112.638 342.794,103.266 C352.166,93.895 367.363,93.894 376.735,103.266 C417.532,144.062 440,198.304 440,256 C440,313.695 417.532,367.938 376.735,408.735 C372.049,413.422 365.907,415.765 359.765,415.765 z M274.51,370.51 C268.367,370.51 262.226,368.167 257.539,363.481 C248.166,354.108 248.166,338.913 257.539,329.54 C298.089,288.99 298.089,223.011 257.539,182.462 C248.166,173.089 248.166,157.893 257.539,148.521 C266.912,139.149 282.107,139.149 291.48,148.521 C350.745,207.786 350.745,304.217 291.48,363.482 C286.794,368.167 280.652,370.51 274.51,370.51 z M200.666,39.334 C213.5,26.5 224,30.85 224,49 L224,463 C224,481.15 213.5,485.499 200.666,472.665 L80,352 L0,352 L0,160 L80,160 L200.666,39.334 z" fill="#E26262"/>
  </g>
</svg>
